<?xml version="1.0" encoding="us-ascii" standalone="no"?><svg xmlns="http://www.w3.org/2000/svg" xmlns:xlink="http://www.w3.org/1999/xlink" contentStyleType="text/css" height="697px" preserveAspectRatio="none" style="width:786px;height:697px;background:#FFFFFF;" version="1.1" viewBox="0 0 786 697" width="786px" zoomAndPan="magnify"><defs/><g><rect fill="#F1F1F1" height="36.4883" rx="12.5" ry="12.5" style="stroke:#181818;stroke-width:1.5;" width="45" x="10" y="329.6621"/><text fill="#000000" font-family="sans-serif" font-size="14" lengthAdjust="spacing" textLength="25" x="20" y="353.1973">JVM</text><rect fill="#F1F1F1" height="36.4883" rx="12.5" ry="12.5" style="stroke:#181818;stroke-width:1.5;" width="105" x="105" y="161.2207"/><text fill="#000000" font-family="sans-serif" font-size="14" lengthAdjust="spacing" textLength="85" x="115" y="184.7559">JVM &#20869;&#23384;&#24067;&#23616;</text><rect fill="#F1F1F1" height="36.4883" rx="12.5" ry="12.5" style="stroke:#181818;stroke-width:1.5;" width="76" x="260" y="20"/><text fill="#000000" font-family="sans-serif" font-size="14" lengthAdjust="spacing" textLength="56" x="270" y="43.5352">&#34394;&#25311;&#26426;&#26632;</text><path d="M210,179.4648 L220,179.4648 C235,179.4648 235,38.2441 250,38.2441 L260,38.2441 " fill="none" style="stroke:#181818;stroke-width:1.0;"/><rect fill="#F1F1F1" height="36.4883" rx="12.5" ry="12.5" style="stroke:#181818;stroke-width:1.5;" width="90" x="260" y="76.4883"/><text fill="#000000" font-family="sans-serif" font-size="14" lengthAdjust="spacing" textLength="70" x="270" y="100.0234">&#26412;&#22320;&#26041;&#27861;&#26632;</text><path d="M210,179.4648 L220,179.4648 C235,179.4648 235,94.7324 250,94.7324 L260,94.7324 " fill="none" style="stroke:#181818;stroke-width:1.0;"/><rect fill="#F1F1F1" height="36.4883" rx="12.5" ry="12.5" style="stroke:#181818;stroke-width:1.5;" width="90" x="260" y="132.9766"/><text fill="#000000" font-family="sans-serif" font-size="14" lengthAdjust="spacing" textLength="70" x="270" y="156.5117">&#31243;&#24207;&#35745;&#25968;&#22120;</text><path d="M210,179.4648 L220,179.4648 C235,179.4648 235,151.2207 250,151.2207 L260,151.2207 " fill="none" style="stroke:#181818;stroke-width:1.0;"/><rect fill="#F1F1F1" height="36.4883" rx="12.5" ry="12.5" style="stroke:#181818;stroke-width:1.5;" width="34" x="260" y="189.4648"/><text fill="#000000" font-family="sans-serif" font-size="14" lengthAdjust="spacing" textLength="14" x="270" y="213">&#22534;</text><text fill="#000000" font-family="sans-serif" font-size="14" lengthAdjust="spacing" textLength="70" x="347" y="194.5117">&#23545;&#35937;&#30340;&#21019;&#24314;</text><path d="M294,207.709 L304,207.709 C319,207.709 319,189.2207 334,189.2207 L344,189.2207 " fill="none" style="stroke:#181818;stroke-width:1.0;"/><text fill="#000000" font-family="sans-serif" font-size="14" lengthAdjust="spacing" textLength="98" x="347" y="213">&#23545;&#35937;&#30340;&#20869;&#23384;&#24067;&#23616;</text><path d="M294,207.709 L304,207.709 C319,207.709 319,207.709 334,207.709 L344,207.709 " fill="none" style="stroke:#181818;stroke-width:1.0;"/><text fill="#000000" font-family="sans-serif" font-size="14" lengthAdjust="spacing" textLength="98" x="347" y="231.4883">&#23545;&#35937;&#30340;&#35775;&#38382;&#23450;&#20301;</text><path d="M294,207.709 L304,207.709 C319,207.709 319,226.1973 334,226.1973 L344,226.1973 " fill="none" style="stroke:#181818;stroke-width:1.0;"/><path d="M210,179.4648 L220,179.4648 C235,179.4648 235,207.709 250,207.709 L260,207.709 " fill="none" style="stroke:#181818;stroke-width:1.0;"/><rect fill="#F1F1F1" height="36.4883" rx="12.5" ry="12.5" style="stroke:#181818;stroke-width:1.5;" width="62" x="260" y="245.9531"/><text fill="#000000" font-family="sans-serif" font-size="14" lengthAdjust="spacing" textLength="42" x="270" y="269.4883">&#26041;&#27861;&#21306;</text><rect fill="#F1F1F1" height="36.4883" rx="12.5" ry="12.5" style="stroke:#181818;stroke-width:1.5;" width="104" x="372" y="245.9531"/><text fill="#000000" font-family="sans-serif" font-size="14" lengthAdjust="spacing" textLength="84" x="382" y="269.4883">&#36816;&#34892;&#26102;&#24120;&#37327;&#27744;</text><path d="M322,264.1973 L332,264.1973 C347,264.1973 347,264.1973 362,264.1973 L372,264.1973 " fill="none" style="stroke:#181818;stroke-width:1.0;"/><path d="M210,179.4648 L220,179.4648 C235,179.4648 235,264.1973 250,264.1973 L260,264.1973 " fill="none" style="stroke:#181818;stroke-width:1.0;"/><rect fill="#F1F1F1" height="36.4883" rx="12.5" ry="12.5" style="stroke:#181818;stroke-width:1.5;" width="76" x="260" y="302.4414"/><text fill="#000000" font-family="sans-serif" font-size="14" lengthAdjust="spacing" textLength="56" x="270" y="325.9766">&#30452;&#25509;&#20869;&#23384;</text><path d="M210,179.4648 L220,179.4648 C235,179.4648 235,320.6855 250,320.6855 L260,320.6855 " fill="none" style="stroke:#181818;stroke-width:1.0;"/><path d="M55,347.9063 L65,347.9063 C80,347.9063 80,179.4648 95,179.4648 L105,179.4648 " fill="none" style="stroke:#181818;stroke-width:1.0;"/><rect fill="#F1F1F1" height="36.4883" rx="12.5" ry="12.5" style="stroke:#181818;stroke-width:1.5;" width="90" x="105" y="499.127"/><text fill="#000000" font-family="sans-serif" font-size="14" lengthAdjust="spacing" textLength="70" x="115" y="522.6621">&#22403;&#22334;&#25910;&#38598;&#22120;</text><rect fill="#F1F1F1" height="36.4883" rx="12.5" ry="12.5" style="stroke:#181818;stroke-width:1.5;" width="174" x="245" y="358.9297"/><text fill="#000000" font-family="sans-serif" font-size="14" lengthAdjust="spacing" textLength="154" x="255" y="382.4648">&#21028;&#26029;&#23545;&#35937;&#26159;&#21542;&#23384;&#27963;&#30340;&#31639;&#27861;</text><text fill="#000000" font-family="sans-serif" font-size="14" lengthAdjust="spacing" textLength="84" x="472" y="373.2207">&#24341;&#29992;&#35745;&#25968;&#31639;&#27861;</text><path d="M419,377.1738 L429,377.1738 C444,377.1738 444,367.9297 459,367.9297 L469,367.9297 " fill="none" style="stroke:#181818;stroke-width:1.0;"/><text fill="#000000" font-family="sans-serif" font-size="14" lengthAdjust="spacing" textLength="98" x="472" y="391.709">&#21487;&#36798;&#24615;&#20998;&#26512;&#31639;&#27861;</text><path d="M419,377.1738 L429,377.1738 C444,377.1738 444,386.418 459,386.418 L469,386.418 " fill="none" style="stroke:#181818;stroke-width:1.0;"/><path d="M195,517.3711 L205,517.3711 C220,517.3711 220,377.1738 235,377.1738 L245,377.1738 " fill="none" style="stroke:#181818;stroke-width:1.0;"/><rect fill="#F1F1F1" height="36.4883" rx="12.5" ry="12.5" style="stroke:#181818;stroke-width:1.5;" width="104" x="245" y="415.418"/><text fill="#000000" font-family="sans-serif" font-size="14" lengthAdjust="spacing" textLength="84" x="255" y="438.9531">&#22403;&#22334;&#25910;&#38598;&#31639;&#27861;</text><rect fill="#F1F1F1" height="36.4883" rx="12.5" ry="12.5" style="stroke:#181818;stroke-width:1.5;" width="104" x="399" y="415.418"/><text fill="#000000" font-family="sans-serif" font-size="14" lengthAdjust="spacing" textLength="84" x="409" y="438.9531">&#20998;&#20195;&#25910;&#38598;&#29702;&#35770;</text><text fill="#000000" font-family="sans-serif" font-size="14" lengthAdjust="spacing" textLength="84" x="556" y="420.4648">&#26631;&#35760;&#22797;&#21046;&#31639;&#27861;</text><path d="M503,433.6621 L513,433.6621 C528,433.6621 528,415.1738 543,415.1738 L553,415.1738 " fill="none" style="stroke:#181818;stroke-width:1.0;"/><text fill="#000000" font-family="sans-serif" font-size="14" lengthAdjust="spacing" textLength="84" x="556" y="438.9531">&#26631;&#35760;&#28165;&#38500;&#31639;&#27861;</text><path d="M503,433.6621 L513,433.6621 C528,433.6621 528,433.6621 543,433.6621 L553,433.6621 " fill="none" style="stroke:#181818;stroke-width:1.0;"/><text fill="#000000" font-family="sans-serif" font-size="14" lengthAdjust="spacing" textLength="84" x="556" y="457.4414">&#26631;&#35760;&#25972;&#29702;&#31639;&#27861;</text><path d="M503,433.6621 L513,433.6621 C528,433.6621 528,452.1504 543,452.1504 L553,452.1504 " fill="none" style="stroke:#181818;stroke-width:1.0;"/><path d="M349,433.6621 L359,433.6621 C374,433.6621 374,433.6621 389,433.6621 L399,433.6621 " fill="none" style="stroke:#181818;stroke-width:1.0;"/><path d="M195,517.3711 L205,517.3711 C220,517.3711 220,433.6621 235,433.6621 L245,433.6621 " fill="none" style="stroke:#181818;stroke-width:1.0;"/><rect fill="#F1F1F1" height="36.4883" rx="12.5" ry="12.5" style="stroke:#181818;stroke-width:1.5;" width="118" x="245" y="499.127"/><text fill="#000000" font-family="sans-serif" font-size="14" lengthAdjust="spacing" textLength="98" x="255" y="522.6621">&#32463;&#20856;&#22403;&#22334;&#25910;&#38598;&#22120;</text><text fill="#000000" font-family="sans-serif" font-size="14" lengthAdjust="spacing" textLength="84" x="416" y="476.4414">Serial &#25910;&#38598;&#22120;</text><path d="M363,517.3711 L373,517.3711 C388,517.3711 388,471.1504 403,471.1504 L413,471.1504 " fill="none" style="stroke:#181818;stroke-width:1.0;"/><text fill="#000000" font-family="sans-serif" font-size="14" lengthAdjust="spacing" textLength="110" x="416" y="494.9297">Serial old &#25910;&#38598;&#22120;</text><path d="M363,517.3711 L373,517.3711 C388,517.3711 388,489.6387 403,489.6387 L413,489.6387 " fill="none" style="stroke:#181818;stroke-width:1.0;"/><text fill="#000000" font-family="sans-serif" font-size="14" lengthAdjust="spacing" textLength="97" x="416" y="513.418">ParNew &#25910;&#38598;&#22120;</text><path d="M363,517.3711 L373,517.3711 C388,517.3711 388,508.127 403,508.127 L413,508.127 " fill="none" style="stroke:#181818;stroke-width:1.0;"/><text fill="#000000" font-family="sans-serif" font-size="14" lengthAdjust="spacing" textLength="76" x="416" y="531.9063">CMS &#25910;&#38598;&#22120;</text><path d="M363,517.3711 L373,517.3711 C388,517.3711 388,526.6152 403,526.6152 L413,526.6152 " fill="none" style="stroke:#181818;stroke-width:1.0;"/><text fill="#000000" font-family="sans-serif" font-size="14" lengthAdjust="spacing" textLength="164" x="416" y="550.3945">Parallel Scavenge &#25910;&#38598;&#22120;</text><path d="M363,517.3711 L373,517.3711 C388,517.3711 388,545.1035 403,545.1035 L413,545.1035 " fill="none" style="stroke:#181818;stroke-width:1.0;"/><text fill="#000000" font-family="sans-serif" font-size="14" lengthAdjust="spacing" textLength="124" x="416" y="568.8828">Parallel Old &#25910;&#38598;&#22120;</text><path d="M363,517.3711 L373,517.3711 C388,517.3711 388,563.5918 403,563.5918 L413,563.5918 " fill="none" style="stroke:#181818;stroke-width:1.0;"/><path d="M195,517.3711 L205,517.3711 C220,517.3711 220,517.3711 235,517.3711 L245,517.3711 " fill="none" style="stroke:#181818;stroke-width:1.0;"/><rect fill="#F1F1F1" height="36.4883" rx="12.5" ry="12.5" style="stroke:#181818;stroke-width:1.5;" width="125" x="245" y="611.0801"/><text fill="#000000" font-family="sans-serif" font-size="14" lengthAdjust="spacing" textLength="105" x="255" y="634.6152">Full GC&#35302;&#21457;&#26465;&#20214;</text><rect fill="#F1F1F1" height="36.4883" rx="12.5" ry="12.5" style="stroke:#181818;stroke-width:1.5;" width="90" x="420" y="582.8359"/><text fill="#000000" font-family="sans-serif" font-size="14" lengthAdjust="spacing" textLength="70" x="430" y="606.3711">&#32769;&#24180;&#20195;&#24050;&#28385;</text><text fill="#000000" font-family="sans-serif" font-size="14" lengthAdjust="spacing" textLength="140" x="563" y="587.8828">&#22823;&#23545;&#35937;&#30452;&#25509;&#36827;&#20837;&#32769;&#24180;&#20195;</text><path d="M510,601.0801 L520,601.0801 C535,601.0801 535,582.5918 550,582.5918 L560,582.5918 " fill="none" style="stroke:#181818;stroke-width:1.0;"/><text fill="#000000" font-family="sans-serif" font-size="14" lengthAdjust="spacing" textLength="210" x="563" y="606.3711">&#38271;&#26399;&#23384;&#27963;&#20998;&#20195;&#24180;&#40836;&#36798;&#26631;&#36827;&#20837;&#32769;&#24180;&#20195;</text><path d="M510,601.0801 L520,601.0801 C535,601.0801 535,601.0801 550,601.0801 L560,601.0801 " fill="none" style="stroke:#181818;stroke-width:1.0;"/><text fill="#000000" font-family="sans-serif" font-size="14" lengthAdjust="spacing" textLength="84" x="563" y="624.8594">&#31354;&#38388;&#20998;&#37197;&#25285;&#20445;</text><path d="M510,601.0801 L520,601.0801 C535,601.0801 535,619.5684 550,619.5684 L560,619.5684 " fill="none" style="stroke:#181818;stroke-width:1.0;"/><path d="M370,629.3242 L380,629.3242 C395,629.3242 395,601.0801 410,601.0801 L420,601.0801 " fill="none" style="stroke:#181818;stroke-width:1.0;"/><rect fill="#F1F1F1" height="36.4883" rx="12.5" ry="12.5" style="stroke:#181818;stroke-width:1.5;" width="90" x="420" y="639.3242"/><text fill="#000000" font-family="sans-serif" font-size="14" lengthAdjust="spacing" textLength="70" x="430" y="662.8594">&#20803;&#31354;&#38388;&#24050;&#28385;</text><text fill="#000000" font-family="sans-serif" font-size="14" lengthAdjust="spacing" textLength="211" x="563" y="662.8594">OutOfMemoryError: Metaspace</text><path d="M510,657.5684 L520,657.5684 C535,657.5684 535,657.5684 550,657.5684 L560,657.5684 " fill="none" style="stroke:#181818;stroke-width:1.0;"/><path d="M370,629.3242 L380,629.3242 C395,629.3242 395,657.5684 410,657.5684 L420,657.5684 " fill="none" style="stroke:#181818;stroke-width:1.0;"/><path d="M195,517.3711 L205,517.3711 C220,517.3711 220,629.3242 235,629.3242 L245,629.3242 " fill="none" style="stroke:#181818;stroke-width:1.0;"/><path d="M55,347.9063 L65,347.9063 C80,347.9063 80,517.3711 95,517.3711 L105,517.3711 " fill="none" style="stroke:#181818;stroke-width:1.0;"/><!--SRC=[TLDTJnf157tVNp6FIcA37pKDJwOe9bR45ErhCy98jrbspR1BOvziT954BJGHKK6553-Qr5LRGX5Q-3FSOVTVT611KV5fatFEFUVUkNid8YgcQbYKWs6yWZv6mu83pRpp2exs1q5CXyjzAA_3pHh77CWyE6HR9onRORbu6s3Pdv2zPdktx7UgYpKljg2IC8qyIrt3mKKRWroizNMyHt1rQzxacuSR4Cz0jV84VHJPovb6tKeRO1ms_ktOwUrSsBPTa5bFclbjbYv1kMnj9jXDpkudKsHVJstZrcHml0xP6jijMPdONN_n0jkxj9FO_XKapxYO5QiyjMcaUKYtbx-fvkw5FTj38d5brcfixHpYCNQSlESUnFMKyCXOe_gzWoTZfc5FmRrORjCqhg6m0_5IJyKTmygwTL3eowIAtAedl5bDW5xkCp4lyHCgOWaz0ojIy0arZ-aS-VG4Tdlz_QHOaeY4_04S9NA8FA_mFKv27asIqBJRF3-3n3Tsb6zKIvqDhts1so9_DlZpYrNptU6XSDxvITghDkiPq4_lj5sLbQgpx8czL_lnEM_LDbfxuw_NlwZvesAbYrnkwJjiIs_KZphRqzSxr8DEV9hgM_QIi49NfoXLg0jvYOeZApX0X0d2pym-DK6Obx2iBdfdKPJGYAZ8QFZ5Y7DaxCNeW8UAo4EMqF0uSewwnfmkvqlazY-W5Zqe34pFpqP7K4JHQ82We1XHgRYagTnXK9Z1KOpUQh8gXeaB-LQ8F3FvfWkWAJagKaKE4raL-77V2yR7XbwBQclll1V4ht-IB6DDKdb5G0cASiY55XSyGw-4MIo7D1pYtfy_26w5-z9L5tBF_GS0]--></g></svg>